<svg xmlns="http://www.w3.org/2000/svg" width="362.804" height="127.671" viewBox="0 0 362.804 127.671">
  <g id="LOGO-VIDEO-DARK-BG" transform="translate(316.595 109.402)">
    <g id="Group_3" data-name="Group 3" transform="translate(-105.797 -63.342)">
      <path id="Path_16" data-name="Path 16" d="M252.755,35.405a5.633,5.633,0,1,0,5.633-5.591,5.628,5.628,0,0,0-5.633,5.591m-3.755,0a9.41,9.41,0,1,1,9.43,9.305A9.368,9.368,0,0,1,249,35.405" transform="translate(-222.628 -15.209)" fill="#fff"/>
      <path id="Path_17" data-name="Path 17" d="M226.455,20.2a16.65,16.65,0,0,0,33.3,0,16.65,16.65,0,0,0-33.3,0m-3.755,0a20.406,20.406,0,0,1,40.809,0,20.406,20.406,0,0,1-40.809,0" transform="translate(-207.303)" fill="#fff"/>
      <path id="Path_18" data-name="Path 18" d="M249.768,11.058C243.467,5.591,234.078,0,221.894,0s-21.656,5.675-28.041,11.225A57.588,57.588,0,0,0,185.8,19.9h4.8a53.224,53.224,0,0,1,6.343-6.384c5.925-5.007,14.354-9.806,24.953-9.806,10.974,0,19.528,5.007,25.37,10.14a51.751,51.751,0,0,1,5.884,6.05H257.9a56.015,56.015,0,0,0-8.137-8.846" transform="translate(-185.8)" fill="#fff"/>
    </g>
    <path id="Path_19" data-name="Path 19" d="M7.427,134.78,0,108.2H4.3l5.884,22.449L16.4,108.2h4.715l6.176,22.449L33.215,108.2h3.964l-7.386,26.58H24.869l-6.217-22.449L12.393,134.78Z" transform="translate(-183.326 -126.394)" fill="#f36b21"/>
    <path id="Path_20" data-name="Path 20" d="M102.919,143.521l-.125-3.13a6.866,6.866,0,0,1-6.259,3.589c-3.589,0-6.635-1.753-6.635-5.884,0-5.174,4.673-6.76,10.515-6.76.5,0,1.627,0,2.212.042v-.835c0-2.921-1.377-4.507-4.548-4.507a10.81,10.81,0,0,0-5.842,1.586l-.25-3.088a19.041,19.041,0,0,1,6.468-1.335c5.132,0,8.1,2.212,8.1,7.553V139.1a35.194,35.194,0,0,0,.25,4.423Zm-1.335-9.764c-3.964,0-7.72.542-7.72,4.048,0,2.253,1.5,3.213,3.63,3.213,3.63,0,5.174-2.879,5.174-6.217v-1.085h-1.085Z" transform="translate(-235.713 -135.134)" fill="#f36b21"/>
    <path id="Path_21" data-name="Path 21" d="M138.309,143.521V128.166a42.239,42.239,0,0,0-.209-4.59h3.755l.125,3.839c.835-2.128,2.837-4.214,5.425-4.214a5.678,5.678,0,0,1,1.669.167l-.209,3.8a4.167,4.167,0,0,0-1.627-.25c-3.964,0-4.924,4.048-4.924,7.135v9.472Z" transform="translate(-263.801 -135.134)" fill="#f36b21"/>
    <path id="Path_22" data-name="Path 22" d="M170.009,143.521V128.166a42.235,42.235,0,0,0-.209-4.59h3.755l.125,3.839c.835-2.128,2.837-4.214,5.425-4.214a5.678,5.678,0,0,1,1.669.167l-.209,3.8a4.167,4.167,0,0,0-1.627-.25c-3.964,0-4.924,4.048-4.924,7.135v9.472Z" transform="translate(-282.273 -135.134)" fill="#f36b21"/>
    <path id="Path_23" data-name="Path 23" d="M210.219,143.521l-.125-3.13a6.866,6.866,0,0,1-6.259,3.589c-3.589,0-6.635-1.753-6.635-5.884,0-5.174,4.673-6.76,10.515-6.76.5,0,1.627,0,2.212.042v-.835c0-2.921-1.377-4.507-4.548-4.507a10.81,10.81,0,0,0-5.842,1.586l-.25-3.088a19.041,19.041,0,0,1,6.468-1.335c5.132,0,8.1,2.212,8.1,7.553V139.1a35.194,35.194,0,0,0,.25,4.423Zm-1.294-9.764c-3.964,0-7.72.542-7.72,4.048,0,2.253,1.5,3.213,3.63,3.213,3.63,0,5.174-2.879,5.174-6.217v-1.085h-1.085Z" transform="translate(-298.24 -135.134)" fill="#f36b21"/>
    <path id="Path_24" data-name="Path 24" d="M245.609,143.763V128.407a42.239,42.239,0,0,0-.209-4.59h3.755l.125,3.422a6.892,6.892,0,0,1,6.468-3.839c4.924,0,6.676,3.13,6.676,7.72v12.6h-4.006V132c0-2.8-.542-5.466-3.964-5.466-3.714,0-4.882,3.213-4.882,6.384v10.849Z" transform="translate(-326.327 -135.251)" fill="#f36b21"/>
    <path id="Path_25" data-name="Path 25" d="M302.36,136.228a11.274,11.274,0,0,1-3.839.668c-4.256,0-5.049-2.963-5.049-6.8V119.412H289.8v-2.879h3.672v-4.3l4.006-1.335v5.633h4.507v2.879H297.52v11.141c0,1.711.417,3.171,2.462,3.171a6,6,0,0,0,2.212-.459Z" transform="translate(-352.2 -127.967)" fill="#f36b21"/>
    <path id="Path_26" data-name="Path 26" d="M324.343,150.021a6.579,6.579,0,0,0,1.961.292c2.045,0,2.879-1.335,3.714-4.006l.417-1.252L323.3,124.4h4.34l4.882,16.4,4.8-16.4h4.048l-7.594,22.616c-1.085,3.088-2.5,6.384-6.676,6.384a13.085,13.085,0,0,1-2.921-.292Z" transform="translate(-371.722 -135.834)" fill="#f36b21"/>
    <path id="Path_27" data-name="Path 27" d="M375.95,144.346,369.9,124.4h4.173l4.59,16.566,4.673-16.566h4.757l4.673,16.566,4.548-16.566h3.8l-5.967,19.946h-4.924l-4.632-16.607-4.715,16.607Z" transform="translate(-398.877 -135.834)" fill="#fff"/>
    <path id="Path_28" data-name="Path 28" d="M450.4,105.3h4.006v3.881H450.4Zm0,7.97h4.006v19.946H450.4Z" transform="translate(-445.786 -124.704)" fill="#fff"/>
    <path id="Path_29" data-name="Path 29" d="M467.45,140.233a11.057,11.057,0,0,0,5.132,1.21c2.128,0,3.8-.793,3.8-3,0-4.507-8.93-3.13-8.93-9.389,0-4.214,3.755-5.55,7.261-5.55a13.34,13.34,0,0,1,4.882.835l-.25,2.921a12.035,12.035,0,0,0-4.465-.918c-1.753,0-3.589.459-3.589,2.5,0,3.839,9.013,2.587,9.013,9.347,0,4.34-3.964,6.05-7.594,6.05a16.83,16.83,0,0,1-5.508-.835Z" transform="translate(-455.576 -135.309)" fill="#fff"/>
    <path id="Path_30" data-name="Path 30" d="M507.489,134.725c0,3.672,2.253,6.718,6.635,6.718a12,12,0,0,0,5.383-1.252l.25,2.963a16.573,16.573,0,0,1-6.176,1.085c-6.718,0-10.181-4.256-10.181-10.474,0-5.466,3.38-10.265,9.138-10.265,6.259,0,8.345,4.423,8.345,10.056v1.21H507.489ZM517,132.263c0-3.046-.876-6.009-4.465-6.009-3.38,0-4.966,3.13-5.091,6.009Z" transform="translate(-476.671 -135.309)" fill="#fff"/>
    <rect id="Rectangle_2" data-name="Rectangle 2" width="1.419" height="8.471" transform="translate(-314.6 -108.7)" fill="none"/>
  </g>
</svg>
